        <svg display="none"
        xmlns="http://www.w3.org/2000/svg"
        >
            <symbol id="facebook" viewBox="0 0 512 512">
                <path
                    d="M504 256C504 119 393 8 256 8S8 119 8 256c0 123.78 90.69 226.38 209.25 245V327.69h-63V256h63v-54.64c0-62.15 37-96.48 93.67-96.48 27.14 0 55.52 4.84 55.52 4.84v61h-31.28c-30.8 0-40.41 19.12-40.41 38.73V256h68.78l-11 71.69h-57.78V501C413.31 482.38 504 379.78 504 256z" />
            </symbol>
            <symbol id="twitter" viewBox="0 0 512 512">
                <path
                    d="M459.37 151.716c.325 4.548.325 9.097.325 13.645 0 138.72-105.583 298.558-298.558 298.558-59.452 0-114.68-17.219-161.137-47.106 8.447.974 16.568 1.299 25.34 1.299 49.055 0 94.213-16.568 130.274-44.832-46.132-.975-84.792-31.188-98.112-72.772 6.498.974 12.995 1.624 19.818 1.624 9.421 0 18.843-1.3 27.614-3.573-48.081-9.747-84.143-51.98-84.143-102.985v-1.299c13.969 7.797 30.214 12.67 47.431 13.319-28.264-18.843-46.781-51.005-46.781-87.391 0-19.492 5.197-37.36 14.294-52.954 51.655 63.675 129.3 105.258 216.365 109.807-1.624-7.797-2.599-15.918-2.599-24.04 0-57.828 46.782-104.934 104.934-104.934 30.213 0 57.502 12.67 76.67 33.137 23.715-4.548 46.456-13.32 66.599-25.34-7.798 24.366-24.366 44.833-46.132 57.827 21.117-2.273 41.584-8.122 60.426-16.243-14.292 20.791-32.161 39.308-52.628 54.253z" />
            </symbol>
            <symbol id="mail" viewBox="0 0 20 16">                

                    <path  d="M0.762563 0.762563C1.07843 0.446697 1.51696 0.25 2 0.25H18C18.483 0.25 18.9216 0.446695 19.2374 0.762564C19.5533 1.07843 19.75 1.51696 19.75 2V14C19.75 14.9665 18.9665 15.75 18 15.75H2C1.0335 15.75 0.25 14.9665 0.25 14V2C0.25 1.51696 0.446697 1.07843 0.762563 0.762563ZM2.81067 1.75L9.11611 8.05541L8.62114 8.55038L9.11612 8.05541C9.60427 8.54356 10.3957 8.54357 10.8839 8.05541L11.4142 8.58574L10.8839 8.05541L17.1893 1.75H2.81067ZM18.25 2.81065L11.9445 9.11607C10.8706 10.19 9.1294 10.19 8.05546 9.11607L8.58579 8.58574L8.05546 9.11607L1.75 2.81065V14C1.75 14.1381 1.86193 14.25 2 14.25H18C18.1381 14.25 18.25 14.1381 18.25 14V2.81065Z"/>
            </symbol>            
            
            <symbol id="phone" viewBox="0 0 19 19">
                <path
                    d="M11.2546 0.917257C11.3003 0.505576 11.6711 0.208917 12.0828 0.254652C13.8075 0.446249 15.3376 1.27852 16.53 2.4694C17.7239 3.66177 18.5517 5.19372 18.7453 6.91632C18.7915 7.32794 18.4954 7.69912 18.0837 7.74538C17.6721 7.79163 17.3009 7.49544 17.2547 7.08381C17.1041 5.74378 16.4567 4.51622 15.47 3.53073C14.4818 2.54375 13.2556 1.89416 11.9172 1.74548C11.5055 1.69975 11.2088 1.32894 11.2546 0.917257ZM5.23289 2.00602C5.0379 1.83866 4.78832 1.74759 4.53066 1.75012L4.52329 1.75019V1.75015H1.80858C1.20987 1.75089 0.700053 2.30521 0.754055 2.90162C0.756109 2.9243 0.757129 2.94707 0.757111 2.96984C0.750371 11.5231 7.41626 18.2497 16.0259 18.243C16.0485 18.243 16.0712 18.244 16.0938 18.246C16.6976 18.3005 17.2519 17.7852 17.2494 17.1896L17.2494 17.1865V14.4767L17.2497 14.4581C17.2561 14.1995 17.1671 13.9473 16.9992 13.7495C16.8954 13.6272 16.6782 13.4656 16.3278 13.2976C15.9898 13.1355 15.5799 12.9922 15.1485 12.8801C14.25 12.6466 13.4183 12.5884 13.0413 12.6686C12.8113 12.7176 12.5686 12.8685 12.2754 13.1446C12.1318 13.2798 11.991 13.4303 11.8397 13.5954C11.8189 13.618 11.7978 13.6411 11.7764 13.6646C11.6481 13.8048 11.5089 13.957 11.3703 14.0953C11.1317 14.3334 10.7635 14.3831 10.4704 14.2167C8.08724 12.8643 6.11387 10.8949 4.75859 8.51618C4.5912 8.22239 4.6411 7.85291 4.88044 7.61405C5.019 7.47576 5.1715 7.33685 5.31202 7.20885C5.33549 7.18746 5.35863 7.16638 5.38132 7.14566C5.54671 6.99459 5.69751 6.8541 5.83299 6.71081C6.10982 6.41801 6.26057 6.1762 6.30942 5.94761C6.38948 5.57296 6.33164 4.74713 6.09916 3.85289C5.98759 3.42371 5.84496 3.01564 5.68367 2.67851C5.51657 2.32922 5.35548 2.11124 5.23289 2.00602ZM4.51993 0.250154C5.1393 0.245036 5.73978 0.464343 6.20983 0.86779C6.56065 1.1689 6.83074 1.60045 7.0368 2.03116C7.24867 2.47404 7.42117 2.97643 7.55091 3.47547C7.80105 4.43766 7.93056 5.53923 7.7763 6.26108C7.64221 6.88857 7.27001 7.37427 6.92294 7.74134C6.74647 7.928 6.56008 8.10052 6.39294 8.25319C6.38338 8.26193 6.3739 8.27058 6.3645 8.27916C7.46546 10.0317 8.94999 11.5131 10.7066 12.6117C10.7157 12.6017 10.7248 12.5917 10.7341 12.5816C10.8871 12.4148 11.06 12.2288 11.247 12.0526C11.6149 11.7061 12.1012 11.3351 12.729 11.2015C13.4523 11.0475 14.5589 11.1771 15.5258 11.4283C16.0271 11.5586 16.5318 11.7319 16.9763 11.945C17.4084 12.1522 17.8418 12.4243 18.1427 12.7787C18.5466 13.2545 18.7625 13.8615 18.7494 14.4853V17.185M10.7639 4.35645C10.8432 3.9499 11.2371 3.68463 11.6436 3.76395C12.4865 3.92841 13.3677 4.30715 14.0303 4.96974C14.6929 5.63232 15.0716 6.51351 15.2361 7.35645C15.3154 7.76299 15.0502 8.15687 14.6436 8.23619C14.2371 8.31551 13.8432 8.05023 13.7639 7.64369C13.6407 7.01231 13.3692 6.42997 12.9697 6.0304C12.5701 5.63083 11.9877 5.35937 11.3564 5.23619C10.9498 5.15687 10.6845 4.76299 10.7639 4.35645Z" />
            </symbol>        
                <symbol id="pin" viewBox="0 0 24 24">
                <path  d="M12 3.75C9.65279 3.75 7.75 5.65279 7.75 8C7.75 10.3472 9.65279 12.25 12 12.25C14.3472 12.25 16.25 10.3472 16.25 8C16.25 5.65279 14.3472 3.75 12 3.75ZM6.25 8C6.25 4.82436 8.82436 2.25 12 2.25C15.1756 2.25 17.75 4.82436 17.75 8C17.75 10.9214 15.5713 13.334 12.75 13.7015V21C12.75 21.4142 12.4142 21.75 12 21.75C11.5858 21.75 11.25 21.4142 11.25 21V13.7015C8.42873 13.334 6.25 10.9214 6.25 8Z"/>
            </symbol>
        </svg>